<svg width="80" height="80" viewBox="0 0 80 80" fill="none" xmlns="http://www.w3.org/2000/svg">
<path d="M27.0125 20.45L27.5125 59.7313L53.6187 59.5625L53.1187 19.0188L27.0125 20.45Z" fill="white"/>
<path d="M26.675 23.5875L33.0125 19.925L47.6625 20.2813L26.5938 34.7188L26.675 23.5875Z" fill="#D80D1A"/>
<path d="M27.0125 42.0187L53.45 23.975L53.2813 36.0625L26.925 54.4437L27.0125 42.0187Z" fill="#1D86FA"/>
<path d="M31.2063 59.5625L53.3688 43.8688L53.0313 55.45L44.7188 61.4125L31.2063 59.5625Z" fill="#D80D1A"/>
<path d="M25.3313 20.2812L25.8375 60.3187L28.2688 59.3937L27.7688 19.3562L25.3313 20.2812ZM52.025 19.6062L52.275 59.5625L54.6938 59.2875L54.375 19.525L52.025 19.6062Z" fill="#A1D2D6"/>
<path d="M25.0313 20.6812C25.4313 21.125 53.7625 20.7812 54.2563 20.5312C54.75 20.2812 57.2625 18.2 57.0688 14.875C56.875 11.5937 54.6063 10.5562 54.6063 10.5562C54.6063 10.5562 54.1688 7.26875 50.3875 4.75C47.7063 2.9625 44.2313 2.44375 39.8688 2.48125C35.0563 2.525 30.5375 2.81875 27.6625 5.69375C24.9 8.45625 24.7875 11.15 24.7875 11.15C24.7875 11.15 22.3438 11.9 22.3438 15.575C22.3375 19.2 25.0313 20.6812 25.0313 20.6812ZM25.475 59.0375C25.0625 59.3813 24.9813 61.5188 24.9813 61.5188C24.9813 61.5188 22.6625 62.7688 22.9938 65.4875C23.2938 67.9188 25.325 68.8625 25.325 68.8625C25.325 68.8625 26.275 72.975 29.4438 75.2125C32.8188 77.5938 36.1438 77.6937 40.9063 77.6937C46.0688 77.6937 49.5875 77.2938 52.3688 74.6688C55.5563 71.65 55.7938 68.5188 55.7938 68.5188C55.7938 68.5188 57.6313 67.425 57.5813 64.9438C57.5313 62.4625 55.5 61.5188 55.5 61.5188C55.5 61.5188 55.075 59.5375 54.7063 59.0375C54.5188 58.7812 47.1063 58.85 39.8188 58.8875C32.7875 58.9188 25.7938 58.7687 25.475 59.0375Z" fill="#C8C8C8"/>
<path d="M38.4813 75.2625C38.4313 76.2563 43.6875 76.2313 47.5625 75.3625C51.9813 74.3688 53.4188 70.6 53.1688 70.3C52.9188 70 48.4563 70.1 48.2063 70.35C47.9563 70.6 46.8188 72.9313 44.8813 73.725C42.9438 74.5188 38.5188 74.5063 38.4813 75.2625ZM23.15 66.1438L57.4938 65.9875C57.4938 65.9875 57.3813 66.7125 56.9125 67.4188C56.4563 68.1 55.8 68.5125 55.8 68.5125L25.35 68.8688C25.35 68.8688 24.4375 68.375 24.0438 67.8875C23.175 66.8125 23.15 66.1438 23.15 66.1438Z" fill="#858585"/>
<path d="M23 64.4375L57.4625 63.9938C57.4625 63.9938 57.35 63.0875 56.7375 62.4062C56.225 61.8312 55.5 61.5125 55.5 61.5125L24.5375 61.8125C24.5375 61.8125 23.9125 62.275 23.5438 62.8063C23.1 63.45 23 64.4375 23 64.4375ZM22.4625 14.2875C22.4625 14.2875 29.35 12.9375 39.425 12.7875C49.5 12.6375 56.7563 13.2313 56.7563 13.2313C56.7563 13.2313 56.4 12.0438 55.85 11.45C55.3 10.8563 54.6125 10.5563 54.6125 10.5563C54.6125 10.5563 45.1688 10.2125 39.4563 10.1625C32.5563 10.1063 24.7875 11.15 24.7875 11.15C24.7875 11.15 23.9563 11.3875 23.3938 12.1188C22.5938 13.15 22.4625 14.2875 22.4625 14.2875Z" fill="#E1E0E0"/>
<path d="M22.35 16.225C22.35 16.225 27.7125 15.175 39.6687 15.025C51.625 14.875 57.0625 15.7437 57.0625 15.7437C57.0625 15.7437 57.1125 16.4687 56.875 17.1625C56.6125 17.9375 56.2 18.45 56.2 18.45C56.2 18.45 45.9187 17.7625 39.6687 17.8125C33.4187 17.8625 23.2187 18.85 23.2187 18.85C23.2187 18.85 22.7875 18.1062 22.6375 17.6625C22.4937 17.2 22.35 16.225 22.35 16.225Z" fill="#858585"/>
<path d="M37.85 12.1563C37.85 12.6875 34.3313 13 30.5938 13.225C28.5 13.35 24.8063 14.3812 24.8063 13C24.8063 11.6187 26.1438 11.3563 30.6813 11.2625C35.2188 11.1688 37.85 11.4438 37.85 12.1563ZM38.1188 3.925C38.2375 4.2625 36.3375 4.90625 34.8688 6.4625C33.8313 7.5625 33.4875 8.6 32.775 8.86875C32.0625 9.1375 28.2375 9.49375 28.1875 8.69375C28.125 7.58125 28.925 5.81875 30.8125 4.775C33.8 3.11875 37.8938 3.3 38.1188 3.925Z" fill="white"/>
</svg>
